PathFileType	4	(X/Y/Z)	D:\MotionData\Pi-Spi Study\20230118_AMCsubject1\Trimmed_right_horiz_add01_rotated.trc
DataRate	CameraRate	NumFrames	NumMarkers	Units	OrigDataRate	OrigDataStartFrame	OrigNumFrames
200.00	200.00	       11	35	mm	200.00	151	       200
Frame#	Time	C7			Sternum			r_AMC1			r_AMC2			r_AMC3			l_AMC1			l_AMC2			l_AMC3			PX			T8			r_humerous			r_elbow_medial			r_elbow_lateral			r_forearm			r_wrist_radius			r_wrist_ulna			r_MCP_1			r_MCP_3			l_humerous			l_elbow_medial			l_elbow_lateral			l_forearm			l_wrist_radius			l_wrist_ulna			l_MCP_1			l_MCP_3			r_ASIS			r_PSIS			l_ASIS			l_PSIS			r_IC			l_IC			TS			AI			AA			
		X1	Y1	Z1	X2	Y2	Z2	X3	Y3	Z3	X4	Y4	Z4	X5	Y5	Z5	X6	Y6	Z6	X7	Y7	Z7	X8	Y8	Z8	X9	Y9	Z9	X10	Y10	Z10	X11	Y11	Z11	X12	Y12	Z12	X13	Y13	Z13	X14	Y14	Z14	X15	Y15	Z15	X16	Y16	Z16	X17	Y17	Z17	X18	Y18	Z18	X19	Y19	Z19	X20	Y20	Z20	X21	Y21	Z21	X22	Y22	Z22	X23	Y23	Z23	X24	Y24	Z24	X25	Y25	Z25	X26	Y26	Z26	X27	Y27	Z27	X28	Y28	Z28	X29	Y29	Z29	X30	Y30	Z30	X31	Y31	Z31	X32	Y32	Z32	X33	Y33	Z33	X34	Y34	Z34	X35	Y35	Z35	

151	0.75	164.114	1373.9557	-220.0801	300.7706	1314.9714	-214.146	181.2661	1357.3535	-61.0917	219.1099	1388.6151	-57.5738	213.2747	1402.6465	-99.1923	186.0594	1318.9126	-382.5839	225.4207	1315.4155	-415.3568	245.0045	1354.5477	-385.4624	367.8603	1125.6853	-206.2881	133.4315	1187.0809	-221.8597	371.039	1361.7645	-149.613	491.0915	1276.396	-187.6135	508.0704	1329.5605	-160.6412	639.6472	1352.1675	-268.595	688.6168	1324.494	-318.6793	679.4211	1374.5431	-327.2547	750.407	1338.6017	-378.1171	746.3555	1386.652	-378.4935	318.6916	1126.9938	-403.6807	249.6993	992.8959	-390.1593	271.1229	991.5386	-441.0634	334.8965	847.0772	-459.6886	381.9151	778.8788	-437.9721	340.0695	770.1636	-454.252	399.6518	701.6187	-447.6686	352.2742	695.6505	-459.5099	338.5449	909.8669	-70.386	157.597	928.0138	-166.5708	360.412	892.3112	-328.4137	166.3047	920.7505	-268.8005	253.1667	970.4213	-47.2185	272.6535	938.9462	-373.1988	92.6401	1297.3223	-104.3324	122.5002	1209.1747	-62.5617	170.229	1363.5172	-1.5586
152	0.755	164.132	1373.9762	-220.094	300.7993	1314.9452	-214.1462	181.2708	1357.3466	-61.1162	219.1159	1388.6262	-57.6576	213.3214	1402.6245	-99.2109	186.0767	1318.9336	-382.6079	225.4607	1315.4197	-415.3678	245.0492	1354.5389	-385.4857	367.8434	1125.6571	-206.2919	133.4368	1187.0844	-221.8821	371.0743	1361.7228	-149.6354	491.0951	1276.3499	-187.6424	508.0689	1329.5619	-160.6353	639.6984	1352.1824	-268.5841	688.6082	1324.5751	-318.688	679.4349	1374.5931	-327.2359	750.426	1338.6487	-378.1034	746.2613	1386.4814	-378.5402	318.715	1126.9757	-403.7176	250.0992	992.7737	-390.2049	271.0859	991.5222	-441.0363	334.8146	847.1339	-459.6841	381.8905	778.8535	-437.945	340.0619	770.0807	-454.2189	399.3173	701.4709	-447.5184	352.2332	695.6332	-459.4821	338.4789	909.6855	-70.5732	157.6042	928.0338	-166.5895	360.4016	892.3114	-328.4227	166.3129	920.7437	-268.8363	253.2064	970.389	-47.2653	272.6401	938.9288	-373.2006	92.6321	1297.3422	-104.3359	122.4643	1209.1487	-62.6015	170.4064	1363.3459	-1.5591
153	0.76	163.9411	1373.9163	-219.9113	300.8136	1314.921	-214.1682	181.2897	1357.3365	-61.1311	219.1901	1388.5757	-57.623	213.3403	1402.6355	-99.2075	186.1224	1318.9025	-382.6369	225.4906	1315.4226	-415.3882	245.0976	1354.5377	-385.503	367.8608	1125.6836	-206.307	133.4467	1187.0957	-221.9135	371.0726	1361.7543	-149.6479	491.123	1276.3856	-187.6929	508.0928	1329.5601	-160.6434	639.7291	1352.1633	-268.5439	688.6819	1324.5176	-318.6381	679.526	1374.5745	-327.207	750.4506	1338.6376	-378.0389	746.2826	1386.501	-378.5044	318.6614	1127.0842	-403.7318	249.6989	992.8917	-390.1709	271.0822	991.5231	-441.0604	334.8557	847.1043	-459.696	381.8605	778.8283	-437.9304	340.0138	770.1832	-454.2719	399.2702	701.4448	-447.5084	352.2058	695.6085	-459.4622	338.4672	909.6751	-70.5782	157.617	928.0165	-166.6324	360.4477	892.2924	-328.4413	166.3065	920.752	-268.8975	253.2001	970.4076	-47.2737	272.6978	938.8999	-373.2639	92.6483	1297.3451	-104.3584	122.4266	1209.1654	-62.5985	170.2395	1363.4948	-1.5828
154	0.765	163.9361	1373.9314	-219.93	300.8003	1314.921	-214.1564	181.298	1357.3362	-61.1464	219.1737	1388.5751	-57.6434	213.3263	1402.6648	-99.2298	186.1947	1318.8729	-382.6968	225.5075	1315.4241	-415.4089	245.1145	1354.5371	-385.5137	367.8518	1125.6337	-206.3345	133.4585	1187.0883	-221.9616	371.1432	1361.9783	-149.5801	491.171	1276.2914	-187.7137	508.1002	1329.5508	-160.6489	639.7394	1352.1725	-268.508	688.6937	1324.5088	-318.6576	679.5596	1374.5961	-327.1679	750.4858	1338.6693	-378.0053	746.3228	1386.5607	-378.4442	318.6975	1126.9808	-403.6837	250.1014	992.7846	-390.2175	271.1455	991.5903	-441.0904	334.8286	847.0915	-459.6885	381.8458	778.8202	-437.9332	340.5445	770.2189	-454.2599	399.2276	701.4293	-447.4752	352.1811	695.5829	-459.4428	338.5352	909.8712	-70.4351	157.6312	928.0132	-166.6544	360.4499	892.2907	-328.4517	166.3511	920.7372	-268.9076	253.196	970.4262	-47.3063	272.7371	938.8807	-373.3369	92.6506	1297.3441	-104.3823	122.4341	1209.1565	-62.6225	170.2742	1363.4816	-1.6165
155	0.77	164.1568	1373.9545	-220.1628	300.8029	1314.8934	-214.1888	181.3016	1357.3374	-61.1576	219.1881	1388.5397	-57.6716	213.3769	1402.6461	-99.2639	186.2032	1318.9133	-382.6873	225.5484	1315.4503	-415.4289	245.1569	1354.5395	-385.5297	367.8785	1125.6175	-206.3358	133.4656	1187.1074	-221.9847	371.1283	1361.7238	-149.6426	491.1862	1276.3287	-187.6886	508.1189	1329.5425	-160.6221	639.7982	1352.1465	-268.484	688.7368	1324.4877	-318.5948	679.6185	1374.5806	-327.125	750.558	1338.6304	-378.0068	746.37	1386.542	-378.417	318.6884	1126.9906	-403.7145	249.6827	992.8832	-390.1845	271.0865	991.5322	-441.0657	334.8723	847.0146	-459.673	381.8143	778.7993	-437.9296	340.4593	770.2789	-454.307	399.3603	701.6064	-447.873	352.1567	695.5728	-459.4228	338.5814	909.875	-70.4479	157.626	928.0293	-166.6905	360.4986	892.2686	-328.4768	166.3708	920.7633	-268.9614	253.2197	970.3773	-47.3373	272.8219	938.8177	-373.3902	92.6726	1297.3411	-104.4154	122.4517	1209.2062	-62.6396	170.2813	1363.4804	-1.5997
156	0.775	164.1705	1373.9626	-220.1923	300.8555	1314.9105	-214.2166	181.31	1357.3398	-61.1736	219.2139	1388.541	-57.6653	213.4102	1402.6323	-99.2496	186.2463	1318.8988	-382.7365	225.5781	1315.4513	-415.4373	245.2018	1354.5444	-385.5635	367.8807	1125.6073	-206.3672	133.4799	1187.101	-222.0096	371.2004	1361.6859	-149.6513	491.2331	1276.2566	-187.703	508.1359	1329.5382	-160.6363	639.8537	1352.2026	-268.4728	688.7632	1324.5507	-318.5847	679.639	1374.6426	-327.0871	750.5809	1338.688	-377.9674	746.4601	1386.5507	-378.406	318.7379	1126.9087	-403.7516	250.0708	992.8165	-390.2559	271.0659	991.5314	-441.0612	334.7907	847.0596	-459.6675	381.796	778.7643	-437.9056	340.4579	770.1653	-454.2683	399.3293	701.5851	-447.8617	352.1035	695.5505	-459.4086	338.5229	909.6614	-70.6393	157.6354	928.0258	-166.713	360.4876	892.2737	-328.4744	166.3829	920.7499	-269.0107	253.1887	970.4181	-47.3503	272.6915	938.9578	-373.3954	92.6883	1297.3433	-104.4546	122.4007	1209.1605	-62.6422	170.4293	1363.3368	-1.6166
157	0.78	164.1707	1373.9597	-220.2091	300.8226	1314.8589	-214.231	181.3204	1357.3527	-61.2197	219.1998	1388.5648	-57.6774	213.4252	1402.6284	-99.2648	186.3116	1318.8878	-382.7687	225.5989	1315.4642	-415.4772	245.2362	1354.5561	-385.5784	367.8856	1125.571	-206.4079	133.4854	1187.1089	-222.042	371.2244	1361.9689	-149.5374	491.2187	1276.3197	-187.73	508.1779	1329.5327	-160.6177	639.8722	1352.1515	-268.4569	688.7661	1324.5122	-318.5589	679.7122	1374.6185	-327.0576	750.6418	1338.6409	-377.8912	746.4838	1386.5515	-378.3454	318.814	1126.8884	-403.8014	249.6687	992.9016	-390.2006	271.0885	991.5406	-441.0861	334.8517	847.0106	-459.6475	381.7695	778.7449	-437.8885	340.4076	770.2868	-454.3262	399.1392	701.3619	-447.4302	352.0793	695.5367	-459.3984	338.5922	909.8688	-70.4791	157.6738	928.024	-166.7427	360.5287	892.2605	-328.4833	166.3861	920.75	-269.0496	253.265	970.3957	-47.3891	272.919	938.7997	-373.3808	92.6654	1297.3457	-104.4945	122.4155	1209.1639	-62.7447	170.4319	1363.2953	-1.6592
158	0.785	164.1843	1373.9517	-220.2262	300.848	1314.8677	-214.2277	181.2873	1357.3503	-61.2298	219.268	1388.5107	-57.69	213.4405	1402.6387	-99.2844	186.3214	1318.9056	-382.7445	225.6442	1315.486	-415.4837	245.2911	1354.572	-385.6035	367.9502	1125.5978	-206.4328	133.5053	1187.1147	-222.0624	371.2608	1361.6697	-149.6378	491.2757	1276.2728	-187.7061	508.1896	1329.5333	-160.5816	639.8994	1352.1312	-268.3975	688.8055	1324.5255	-318.5107	679.7113	1374.6887	-327.0168	750.6693	1338.697	-377.8655	746.5546	1386.5467	-378.3091	318.7924	1126.9044	-403.8274	249.6715	992.9056	-390.2008	271.065	991.5445	-441.0986	334.8226	847.0359	-459.6959	381.7521	778.7275	-437.8845	340.4139	770.1501	-454.2797	399.2442	701.5309	-447.8149	352.055	695.5256	-459.4031	338.5509	909.6617	-70.681	157.6657	928.0189	-166.7653	360.5375	892.2531	-328.5165	166.429	920.7656	-269.0771	253.2759	970.3539	-47.4363	272.8304	938.8494	-373.4465	92.6888	1297.3518	-104.521	122.3936	1209.1802	-62.7245	170.2923	1363.4751	-1.6967
159	0.79	164.1962	1373.967	-220.2474	300.8755	1314.8846	-214.2247	181.3177	1357.3319	-61.2477	219.2157	1388.5262	-57.7073	213.4469	1402.6191	-99.2943	186.3841	1318.9027	-382.7745	225.672	1315.4874	-415.4895	245.317	1354.57	-385.6177	367.9389	1125.6116	-206.4283	133.5175	1187.113	-222.1064	371.2826	1361.6969	-149.623	491.2457	1276.2886	-187.694	508.2278	1329.5143	-160.5846	639.9135	1352.119	-268.3883	688.8475	1324.5089	-318.51	679.8062	1374.6575	-326.9717	750.737	1338.6733	-377.821	746.5549	1386.5685	-378.2392	318.8073	1126.8253	-403.8413	249.6702	992.9455	-390.2238	271.0844	991.5541	-441.1082	334.7892	847.0327	-459.695	381.7257	778.7239	-437.8771	340.3725	770.2009	-454.3182	399.0557	701.3375	-447.4369	352.0009	695.5129	-459.4044	338.5339	909.6631	-70.7045	157.6997	928.0303	-166.7987	360.5504	892.2291	-328.5222	166.4617	920.7708	-269.0803	253.3325	970.3439	-47.4241	272.9358	938.8108	-373.4379	92.6894	1297.3479	-104.5458	122.426	1209.1862	-62.7926	170.2835	1363.475	-1.7237
160	0.795	164.1947	1373.9569	-220.2551	300.8805	1314.8618	-214.2667	181.2947	1357.3157	-61.2803	219.2431	1388.4965	-57.6537	213.4273	1402.6693	-99.2998	186.3805	1318.969	-382.8003	225.6995	1315.4856	-415.5177	245.3345	1354.5856	-385.6313	367.9731	1125.6126	-206.4729	133.5234	1187.1353	-222.1033	371.3285	1361.7063	-149.6496	491.281	1276.2054	-187.713	508.2516	1329.5043	-160.5632	639.9533	1352.1493	-268.3318	688.8858	1324.5002	-318.471	679.8182	1374.6925	-326.9387	750.7707	1338.6891	-377.8139	746.5799	1386.6092	-378.1969	318.7976	1126.8939	-403.8769	249.6498	992.9467	-390.2513	271.0665	991.5482	-441.1179	334.7835	847.0362	-459.693	381.6936	778.7213	-437.8897	339.8971	769.8323	-454.1446	398.9871	701.3285	-447.412	351.9647	695.4949	-459.3873	338.524	909.663	-70.6929	157.6953	928.0444	-166.8567	360.6143	892.2343	-328.5438	166.4566	920.7547	-269.1508	253.2702	970.4088	-47.4479	272.9172	938.8746	-373.5075	92.6962	1297.3469	-104.5693	122.4221	1209.1528	-62.8446	170.2757	1363.4878	-1.7352
161	0.8	164.2121	1373.9618	-220.3065	300.9256	1314.8579	-214.256	181.3056	1357.3406	-61.2667	219.2286	1388.542	-57.7397	213.4068	1402.6867	-99.311	186.4347	1318.9519	-382.8319	225.7418	1315.5044	-415.5474	245.3857	1354.6111	-385.6361	368.0147	1125.6439	-206.4996	133.5348	1187.1268	-222.1429	371.3636	1361.9866	-149.4729	491.2657	1276.2601	-187.6949	508.2262	1329.5015	-160.5259	640.0138	1352.1049	-268.2972	688.9094	1324.501	-318.416	679.8766	1374.6747	-326.9211	750.8465	1338.6724	-377.73	746.8001	1386.8481	-378.0516	318.803	1126.8425	-403.8801	249.6476	992.9553	-390.2696	271.056	991.5528	-441.1209	334.8	846.9864	-459.6544	381.6722	778.7028	-437.9024	339.8668	769.9074	-454.2234	398.9572	701.3221	-447.4362	351.9708	695.5054	-459.3957	338.5716	909.6473	-70.7491	157.7044	928.0179	-166.8583	360.6418	892.2429	-328.5673	166.482	920.7772	-269.1779	253.3266	970.3917	-47.4784	273.0806	938.7514	-373.4636	92.7269	1297.3422	-104.6012	122.4221	1209.1715	-62.8567	170.2523	1363.474	-1.7551
